<?xml version="1.0" encoding="utf-8"?>
<!-- Generator: Adobe Illustrator 19.2.1, SVG Export Plug-In . SVG Version: 6.00 Build 0)  -->
<svg version="1.1" id="layer" xmlns="http://www.w3.org/2000/svg" xmlns:xlink="http://www.w3.org/1999/xlink" x="0px" y="0px"
	 viewBox="0 0 652 652" style="enable-background:new 0 0 652 652;" xml:space="preserve">
<style type="text/css">
	.st0{fill:#0088CD;}
	.st1{fill:#4C4948;}
	.st2{fill:#00B3EA;}
	.st3{clip-path:url(#SVGID_2_);fill:url(#SVGID_3_);}
	.st4{clip-path:url(#SVGID_5_);fill:url(#SVGID_6_);}
</style>
<polygon class="st0" points="237.2,382.7 229,382.7 229,360.3 221.2,382.7 215,382.7 207,360.3 207,382.7 198.8,382.7 198.8,346.6 
	208.5,346.6 218.1,371.7 227.7,346.6 237.2,346.6 "/>
<g>
	<path class="st0" d="M245.3,346.6h8.4v23.8c0,3.3,2.3,6.1,5.7,6.1c3.4,0,5.7-2.8,5.7-6.1v-23.8h8.4v23.8c0,7.4-5.4,13.3-14.1,13.3
		c-8.6,0-14-5.8-14-13.3V346.6z"/>
	<path class="st0" d="M288.5,370.7c0,3.9,2.4,6.2,5.7,6.2c2.8,0,4.8-1.7,4.8-4.2c0-2.8-2.4-3.9-5.6-5.1c-6.4-2.4-12.2-4.5-12.2-11.6
		c0-7.2,6.1-10.5,12.8-10.5c8.5,0,12.8,5.4,12.8,11.5h-8.4c0-3.2-1.6-5.2-4.5-5.2c-2.3,0-4.3,1.3-4.3,3.7c0,2.3,1.9,3.7,5.2,4.8
		c6.4,2.2,12.7,4.5,12.7,11.9c0,7-5.6,11.4-13.4,11.4c-8.1,0-13.8-4.6-13.8-12.9H288.5z"/>
	<rect x="314.7" y="346.6" class="st0" width="8.5" height="36.1"/>
	<path class="st0" d="M367.4,369.8c-1.4,7.6-8,13.9-18.1,13.9c-12.1,0-19.4-8.9-19.4-19c0-9.9,6.9-19,19.3-19
		c10.6,0,17.1,6.7,18.1,15h-8.7c-0.8-4.2-4-7.4-9.3-7.4c-6.9,0-10.8,5.5-10.8,11.5c0,6.3,4.4,11.5,10.9,11.5c4.9,0,8.1-2.8,9.1-6.3
		H367.4z"/>
	<polygon class="st1" points="250.7,273.2 267.7,273.2 267.7,320.9 279,320.9 279,273.2 295.9,273.2 295.9,262.5 250.7,262.5 	"/>
	<rect x="307.7" y="262.5" class="st1" width="11.6" height="58.4"/>
	<polygon class="st1" points="374.9,300.6 346.4,262.5 335.3,262.5 335.3,320.9 346.7,320.9 346.7,282.8 375.3,320.9 386.3,320.9 
		386.3,262.5 374.9,262.5 	"/>
	<path class="st1" d="M432.9,301.2h10.9c-1.9,6.5-7.3,10.2-15.1,10.2c-13.1,0-19-10.2-19-19.6c0-9.7,6.4-19.9,18.3-19.9
		c6.7,0,12.3,3.4,13.5,8.3l0.4,1.6h11.3l-0.4-2.5c-1.6-10.5-12.1-18.2-25-18.2c-19.3,0-29.7,15.8-29.7,30.7
		c0,15,10.4,30.2,30.3,30.2c14,0,24.4-8,27.3-20.9h6.2v-10.7h-29V301.2z"/>
	<polygon class="st1" points="612,262.5 600.4,285.5 585.9,262.5 572.6,262.5 594.4,297.4 582.6,320.9 595.2,320.9 624.6,262.5 	"/>
	<path class="st1" d="M503.9,298.7c5.9-3.5,9.5-9.9,9.5-16.8c0-10.7-8.7-19.4-19.3-19.5h-22.6v58.3h11.4v-19.3h9.5l8.9,19.4H514
		L503.9,298.7z M494.1,290.8h-11.2v-17.6H494c4.8,0,8.8,4,8.8,8.8C502.7,286.8,498.9,290.8,494.1,290.8"/>
	<path class="st1" d="M552.8,263l-0.2-0.5h-10.1l-20.2,58.4h12.4l4.3-13h17.1l4.3,13h12.4L552.8,263z M541.4,298.3l6.2-18.6
		l6.2,18.6H541.4z"/>
	<path class="st1" d="M229.1,287.3l-10.5-2.4c-4.3-1-6.5-3-6.5-6.3c0-4.1,3.7-6.8,9.1-6.8c6,0,9.3,3,10.6,6.9h12
		c-1.9-9.8-9.5-16.8-22.7-16.8c-12.1,0-20.8,7.3-20.8,17.8c0,9.5,6.4,13.9,14.7,15.8l10.3,2.3c5,1.1,7.1,3,7.1,6.5
		c0,4.6-3.9,7.2-9.7,7.2c-5.6,0-9.9-2.3-11.5-7.4h-12.4c2,11,11.1,17.4,24,17.4c12.2,0,21.5-6.8,21.5-18
		C244.3,294.9,238.5,289.5,229.1,287.3"/>
	<path class="st0" d="M98.5,236.6c0.6,8.4,6.9,51.4,38.4,91h0c6.7,8.3,14.6,16.3,23.8,23.8l-62.2,56.8l-62.2-56.8
		c9.2-7.5,17.1-15.6,23.8-23.8C91.6,288,97.9,245,98.5,236.6"/>
	<path class="st2" d="M172.5,290l-73.9-53.3v0l0,0v0v0L24.6,290c14.4,12.2,26.1,25,35.5,37.6h0c31,41.5,37.8,71.5,38.4,80.7v0
		c0,0,0,0,0,0c0.7-9.2,7.5-39.1,38.4-80.7h0h0C146.4,314.9,158.1,302.1,172.5,290"/>
</g>
<g>
	<defs>
		<path id="SVGID_1_" d="M36.3,351.4l62.2,56.8c-0.7-9.2-7.5-39.1-38.4-80.7C53.4,335.8,45.5,343.9,36.3,351.4"/>
	</defs>
	<clipPath id="SVGID_2_">
		<use xlink:href="#SVGID_1_"  style="overflow:visible;"/>
	</clipPath>
	
		<linearGradient id="SVGID_3_" gradientUnits="userSpaceOnUse" x1="38.5524" y1="756.3653" x2="41.3663" y2="756.3653" gradientTransform="matrix(-8.1097 4.6821 4.6821 8.1097 -3145.3972 -5955.7021)">
		<stop  offset="0" style="stop-color:#376AB2"/>
		<stop  offset="2.774780e-002" style="stop-color:#376AB2"/>
		<stop  offset="0.2927" style="stop-color:#2773BA"/>
		<stop  offset="1" style="stop-color:#0088CD"/>
	</linearGradient>
	<polygon class="st3" points="133.4,388.1 51.9,435.2 1.4,347.7 83,300.6 	"/>
</g>
<g>
	<defs>
		<path id="SVGID_4_" d="M98.5,236.6c0.6,8.4,6.9,51.4,38.4,91c9.4-12.6,21.1-25.5,35.5-37.6L98.5,236.6z"/>
	</defs>
	<clipPath id="SVGID_5_">
		<use xlink:href="#SVGID_4_"  style="overflow:visible;"/>
	</clipPath>
	
		<linearGradient id="SVGID_6_" gradientUnits="userSpaceOnUse" x1="8.9602" y1="699.1596" x2="11.7741" y2="699.1596" gradientTransform="matrix(11.1052 -6.832 -6.832 -11.1052 4791.8389 8120.4175)">
		<stop  offset="0" style="stop-color:#00A2DE"/>
		<stop  offset="0.5058" style="stop-color:#00AEE6"/>
		<stop  offset="1" style="stop-color:#00B3EA"/>
	</linearGradient>
	<polygon class="st4" points="57.9,261.6 152.2,203.6 213.1,302.6 118.8,360.6 	"/>
</g>
</svg>
